<svg xmlns="http://www.w3.org/2000/svg" xmlns:xlink="http://www.w3.org/1999/xlink" width="1500" zoomAndPan="magnify" viewBox="0 0 1125 374.999991" height="500" preserveAspectRatio="xMidYMid meet" version="1.0"><defs><filter x="0%" y="0%" width="100%" height="100%" id="d70f71f648"><feColorMatrix values="0 0 0 0 1 0 0 0 0 1 0 0 0 0 1 0 0 0 1 0" color-interpolation-filters="sRGB"/></filter><g/><mask id="c699bb94f4"><g filter="url(#d70f71f648)"><rect x="-112.5" width="1350" fill="#000000" y="-37.499999" height="449.999989" fill-opacity="0.4"/></g></mask><clipPath id="08dfb154ab"><path d="M 0 0 L 1116.480469 0 L 1116.480469 375 L 0 375 Z M 0 0 " clip-rule="nonzero"/></clipPath><clipPath id="bda29738dc"><rect x="0" width="1117" y="0" height="375"/></clipPath><clipPath id="7f019d36af"><rect x="0" width="1117" y="0" height="375"/></clipPath></defs><g mask="url(#c699bb94f4)"><g transform="matrix(1, 0, 0, 1, 0, 0)"><g clip-path="url(#7f019d36af)"><g clip-path="url(#08dfb154ab)"><g transform="matrix(1, 0, 0, 1, 0, 0)"><g clip-path="url(#bda29738dc)"><g fill="#000000" fill-opacity="1"><g transform="translate(-16.794629, 296.840335)"><g><path d="M 141.6875 0 L 87.453125 -91.53125 L 47.015625 -91.53125 L 47.015625 0 L 25.078125 0 L 25.078125 -219.109375 L 90.90625 -219.109375 C 115.351562 -219.109375 133.894531 -213.253906 146.53125 -201.546875 C 159.175781 -189.847656 165.5 -174.488281 165.5 -155.46875 C 165.5 -139.59375 160.953125 -126.0625 151.859375 -114.875 C 142.773438 -103.695312 129.351562 -96.4375 111.59375 -93.09375 L 168.015625 0 Z M 47.015625 -109.390625 L 91.21875 -109.390625 C 108.351562 -109.390625 121.253906 -113.566406 129.921875 -121.921875 C 138.597656 -130.285156 142.9375 -141.46875 142.9375 -155.46875 C 142.9375 -169.882812 138.753906 -181.007812 130.390625 -188.84375 C 122.035156 -196.6875 108.875 -200.609375 90.90625 -200.609375 L 47.015625 -200.609375 Z M 47.015625 -109.390625 "/></g></g></g><g fill="#000000" fill-opacity="1"><g transform="translate(155.289097, 296.840335)"><g><path d="M 123.5 2.1875 C 103.226562 2.1875 84.835938 -2.5625 68.328125 -12.0625 C 51.816406 -21.570312 38.804688 -34.84375 29.296875 -51.875 C 19.796875 -68.90625 15.046875 -88.179688 15.046875 -109.703125 C 15.046875 -131.234375 19.796875 -150.515625 29.296875 -167.546875 C 38.804688 -184.578125 51.816406 -197.84375 68.328125 -207.34375 C 84.835938 -216.851562 103.226562 -221.609375 123.5 -221.609375 C 143.976562 -221.609375 162.472656 -216.851562 178.984375 -207.34375 C 195.492188 -197.84375 208.445312 -184.578125 217.84375 -167.546875 C 227.25 -150.515625 231.953125 -131.234375 231.953125 -109.703125 C 231.953125 -88.179688 227.25 -68.90625 217.84375 -51.875 C 208.445312 -34.84375 195.492188 -21.570312 178.984375 -12.0625 C 162.472656 -2.5625 143.976562 2.1875 123.5 2.1875 Z M 123.5 -16.921875 C 139.800781 -16.921875 154.425781 -20.679688 167.375 -28.203125 C 180.332031 -35.734375 190.570312 -46.550781 198.09375 -60.65625 C 205.625 -74.757812 209.390625 -91.109375 209.390625 -109.703125 C 209.390625 -128.304688 205.625 -144.609375 198.09375 -158.609375 C 190.570312 -172.609375 180.332031 -183.367188 167.375 -190.890625 C 154.425781 -198.410156 139.800781 -202.171875 123.5 -202.171875 C 107.195312 -202.171875 92.566406 -198.410156 79.609375 -190.890625 C 66.660156 -183.367188 56.421875 -172.609375 48.890625 -158.609375 C 41.367188 -144.609375 37.609375 -128.304688 37.609375 -109.703125 C 37.609375 -91.109375 41.367188 -74.757812 48.890625 -60.65625 C 56.421875 -46.550781 66.660156 -35.734375 79.609375 -28.203125 C 92.566406 -20.679688 107.195312 -16.921875 123.5 -16.921875 Z M 123.5 -16.921875 "/></g></g></g><g fill="#000000" fill-opacity="1"><g transform="translate(390.376199, 296.840335)"><g><path d="M 123.5 2.1875 C 103.226562 2.1875 84.835938 -2.5625 68.328125 -12.0625 C 51.816406 -21.570312 38.804688 -34.84375 29.296875 -51.875 C 19.796875 -68.90625 15.046875 -88.179688 15.046875 -109.703125 C 15.046875 -131.234375 19.796875 -150.515625 29.296875 -167.546875 C 38.804688 -184.578125 51.816406 -197.84375 68.328125 -207.34375 C 84.835938 -216.851562 103.226562 -221.609375 123.5 -221.609375 C 143.976562 -221.609375 162.472656 -216.851562 178.984375 -207.34375 C 195.492188 -197.84375 208.445312 -184.578125 217.84375 -167.546875 C 227.25 -150.515625 231.953125 -131.234375 231.953125 -109.703125 C 231.953125 -88.179688 227.25 -68.90625 217.84375 -51.875 C 208.445312 -34.84375 195.492188 -21.570312 178.984375 -12.0625 C 162.472656 -2.5625 143.976562 2.1875 123.5 2.1875 Z M 123.5 -16.921875 C 139.800781 -16.921875 154.425781 -20.679688 167.375 -28.203125 C 180.332031 -35.734375 190.570312 -46.550781 198.09375 -60.65625 C 205.625 -74.757812 209.390625 -91.109375 209.390625 -109.703125 C 209.390625 -128.304688 205.625 -144.609375 198.09375 -158.609375 C 190.570312 -172.609375 180.332031 -183.367188 167.375 -190.890625 C 154.425781 -198.410156 139.800781 -202.171875 123.5 -202.171875 C 107.195312 -202.171875 92.566406 -198.410156 79.609375 -190.890625 C 66.660156 -183.367188 56.421875 -172.609375 48.890625 -158.609375 C 41.367188 -144.609375 37.609375 -128.304688 37.609375 -109.703125 C 37.609375 -91.109375 41.367188 -74.757812 48.890625 -60.65625 C 56.421875 -46.550781 66.660156 -35.734375 79.609375 -28.203125 C 92.566406 -20.679688 107.195312 -16.921875 123.5 -16.921875 Z M 123.5 -16.921875 "/></g></g></g><g fill="#000000" fill-opacity="1"><g transform="translate(625.463329, 296.840335)"><g><path d="M 153.28125 -219.109375 L 153.28125 -200.921875 L 92.46875 -200.921875 L 92.46875 0 L 70.53125 0 L 70.53125 -200.921875 L 9.40625 -200.921875 L 9.40625 -219.109375 Z M 153.28125 -219.109375 "/></g></g></g><g fill="#000000" fill-opacity="1"><g transform="translate(776.545903, 296.840335)"><g/></g></g><g fill="#000000" fill-opacity="1"><g transform="translate(850.519875, 296.840335)"><g><path d="M 9.71875 -205 L 9.71875 -224.75 L 63 -224.75 L 63 0 L 40.75 0 L 40.75 -205 Z M 9.71875 -205 "/></g></g></g><g fill="#000000" fill-opacity="1"><g transform="translate(930.136007, 296.840335)"><g><path d="M 10.65625 -53.28125 L 10.65625 -69.90625 L 124.75 -223.484375 L 150.765625 -223.484375 L 150.765625 -72.40625 L 184.3125 -72.40625 L 184.3125 -53.28125 L 150.765625 -53.28125 L 150.765625 0 L 129.140625 0 L 129.140625 -53.28125 Z M 130.078125 -199.359375 L 36.046875 -72.40625 L 130.078125 -72.40625 Z M 130.078125 -199.359375 "/></g></g></g></g></g></g></g></g></g></svg>