<svg xmlns="http://www.w3.org/2000/svg" xmlns:xlink="http://www.w3.org/1999/xlink" width="1500" zoomAndPan="magnify" viewBox="0 0 1125 374.999991" height="500" preserveAspectRatio="xMidYMid meet" version="1.0"><defs><g/><clipPath id="ae87d25615"><rect x="0" width="1099" y="0" height="203"/></clipPath><clipPath id="4ac6bb2dc0"><rect x="0" width="613" y="0" height="203"/></clipPath></defs><g transform="matrix(1, 0, 0, 1, 10, 12)"><g clip-path="url(#ae87d25615)"><g fill="#000000" fill-opacity="1"><g transform="translate(1.277335, 151.605105)"><g><path d="M 70.359375 -100.5625 L 70.359375 -92.21875 L 42.4375 -92.21875 L 42.4375 0 L 32.375 0 L 32.375 -92.21875 L 4.3125 -92.21875 L 4.3125 -100.5625 Z M 70.359375 -100.5625 "/></g></g></g><g fill="#000000" fill-opacity="1"><g transform="translate(70.627722, 151.605105)"><g><path d="M 48.921875 -80 C 54.867188 -80 60.210938 -78.75 64.953125 -76.25 C 69.703125 -73.757812 73.441406 -69.945312 76.171875 -64.8125 C 78.910156 -59.6875 80.28125 -53.429688 80.28125 -46.046875 L 80.28125 0 L 70.359375 0 L 70.359375 -44.890625 C 70.359375 -53.421875 68.222656 -59.941406 63.953125 -64.453125 C 59.679688 -68.960938 53.851562 -71.21875 46.46875 -71.21875 C 38.894531 -71.21875 32.851562 -68.816406 28.34375 -64.015625 C 23.832031 -59.222656 21.578125 -52.175781 21.578125 -42.875 L 21.578125 0 L 11.515625 0 L 11.515625 -106.46875 L 21.578125 -106.46875 L 21.578125 -65.171875 C 24.078125 -69.867188 27.75 -73.515625 32.59375 -76.109375 C 37.4375 -78.703125 42.878906 -80 48.921875 -80 Z M 48.921875 -80 "/></g></g></g><g fill="#000000" fill-opacity="1"><g transform="translate(156.236635, 151.605105)"><g><path d="M 82.578125 -43.3125 C 82.578125 -39.851562 82.484375 -37.210938 82.296875 -35.390625 L 17.125 -35.390625 C 17.40625 -29.441406 18.84375 -24.359375 21.4375 -20.140625 C 24.03125 -15.921875 27.4375 -12.734375 31.65625 -10.578125 C 35.875 -8.421875 40.476562 -7.34375 45.46875 -7.34375 C 51.988281 -7.34375 57.476562 -8.921875 61.9375 -12.078125 C 66.394531 -15.242188 69.34375 -19.515625 70.78125 -24.890625 L 81.4375 -24.890625 C 79.519531 -17.210938 75.414062 -10.953125 69.125 -6.109375 C 62.84375 -1.265625 54.957031 1.15625 45.46875 1.15625 C 38.082031 1.15625 31.460938 -0.5 25.609375 -3.8125 C 19.753906 -7.125 15.171875 -11.820312 11.859375 -17.90625 C 8.554688 -24 6.90625 -31.125 6.90625 -39.28125 C 6.90625 -47.425781 8.535156 -54.566406 11.796875 -60.703125 C 15.054688 -66.847656 19.613281 -71.550781 25.46875 -74.8125 C 31.320312 -78.070312 37.988281 -79.703125 45.46875 -79.703125 C 52.945312 -79.703125 59.488281 -78.070312 65.09375 -74.8125 C 70.707031 -71.550781 75.023438 -67.160156 78.046875 -61.640625 C 81.066406 -56.128906 82.578125 -50.019531 82.578125 -43.3125 Z M 72.375 -43.59375 C 72.46875 -49.445312 71.289062 -54.4375 68.84375 -58.5625 C 66.394531 -62.6875 63.0625 -65.800781 58.84375 -67.90625 C 54.625 -70.019531 50.019531 -71.078125 45.03125 -71.078125 C 37.550781 -71.078125 31.171875 -68.675781 25.890625 -63.875 C 20.617188 -59.082031 17.695312 -52.320312 17.125 -43.59375 Z M 72.375 -43.59375 "/></g></g></g><g fill="#000000" fill-opacity="1"><g transform="translate(240.262859, 151.605105)"><g/></g></g><g fill="#000000" fill-opacity="1"><g transform="translate(274.218614, 151.605105)"><g><path d="M 75.828125 -71.65625 C 75.828125 -63.019531 72.992188 -56.0625 67.328125 -50.78125 C 61.671875 -45.507812 53.1875 -42.875 41.875 -42.875 L 21.578125 -42.875 L 21.578125 0 L 11.515625 0 L 11.515625 -100.5625 L 41.875 -100.5625 C 53.09375 -100.5625 61.554688 -97.925781 67.265625 -92.65625 C 72.972656 -87.382812 75.828125 -80.382812 75.828125 -71.65625 Z M 41.875 -51.5 C 57.601562 -51.5 65.46875 -58.21875 65.46875 -71.65625 C 65.46875 -78.363281 63.59375 -83.441406 59.84375 -86.890625 C 56.101562 -90.347656 50.113281 -92.078125 41.875 -92.078125 L 21.578125 -92.078125 L 21.578125 -51.5 Z M 41.875 -51.5 "/></g></g></g><g fill="#000000" fill-opacity="1"><g transform="translate(349.899743, 151.605105)"><g><path d="M 21.578125 -64.59375 C 23.785156 -69.488281 27.164062 -73.28125 31.71875 -75.96875 C 36.28125 -78.65625 41.867188 -80 48.484375 -80 L 48.484375 -69.484375 L 45.75 -69.484375 C 38.457031 -69.484375 32.601562 -67.515625 28.1875 -63.578125 C 23.78125 -59.648438 21.578125 -53.082031 21.578125 -43.875 L 21.578125 0 L 11.515625 0 L 11.515625 -78.5625 L 21.578125 -78.5625 Z M 21.578125 -64.59375 "/></g></g></g><g fill="#000000" fill-opacity="1"><g transform="translate(396.516984, 151.605105)"><g><path d="M 16.546875 -93.375 C 14.535156 -93.375 12.804688 -94.09375 11.359375 -95.53125 C 9.921875 -96.96875 9.203125 -98.742188 9.203125 -100.859375 C 9.203125 -102.960938 9.921875 -104.707031 11.359375 -106.09375 C 12.804688 -107.488281 14.535156 -108.1875 16.546875 -108.1875 C 18.554688 -108.1875 20.28125 -107.488281 21.71875 -106.09375 C 23.164062 -104.707031 23.890625 -102.960938 23.890625 -100.859375 C 23.890625 -98.742188 23.164062 -96.96875 21.71875 -95.53125 C 20.28125 -94.09375 18.554688 -93.375 16.546875 -93.375 Z M 21.578125 -78.5625 L 21.578125 0 L 11.515625 0 L 11.515625 -78.5625 Z M 21.578125 -78.5625 "/></g></g></g><g fill="#000000" fill-opacity="1"><g transform="translate(423.99809, 151.605105)"><g><path d="M 39.421875 -9.78125 L 65.890625 -78.5625 L 76.546875 -78.5625 L 45.03125 0 L 33.671875 0 L 2.15625 -78.5625 L 12.953125 -78.5625 Z M 39.421875 -9.78125 "/></g></g></g><g fill="#000000" fill-opacity="1"><g transform="translate(497.233246, 151.605105)"><g><path d="M 6.90625 -39.421875 C 6.90625 -47.472656 8.507812 -54.546875 11.71875 -60.640625 C 14.9375 -66.734375 19.398438 -71.429688 25.109375 -74.734375 C 30.816406 -78.046875 37.265625 -79.703125 44.453125 -79.703125 C 51.929688 -79.703125 58.378906 -77.972656 63.796875 -74.515625 C 69.222656 -71.066406 73.132812 -66.660156 75.53125 -61.296875 L 75.53125 -78.5625 L 85.609375 -78.5625 L 85.609375 0 L 75.53125 0 L 75.53125 -17.40625 C 73.039062 -12.039062 69.082031 -7.601562 63.65625 -4.09375 C 58.238281 -0.59375 51.789062 1.15625 44.3125 1.15625 C 37.21875 1.15625 30.816406 -0.519531 25.109375 -3.875 C 19.398438 -7.238281 14.9375 -11.988281 11.71875 -18.125 C 8.507812 -24.269531 6.90625 -31.367188 6.90625 -39.421875 Z M 75.53125 -39.28125 C 75.53125 -45.613281 74.234375 -51.175781 71.640625 -55.96875 C 69.054688 -60.757812 65.535156 -64.453125 61.078125 -67.046875 C 56.617188 -69.640625 51.703125 -70.9375 46.328125 -70.9375 C 40.765625 -70.9375 35.773438 -69.6875 31.359375 -67.1875 C 26.953125 -64.695312 23.476562 -61.078125 20.9375 -56.328125 C 18.394531 -51.578125 17.125 -45.941406 17.125 -39.421875 C 17.125 -32.992188 18.394531 -27.359375 20.9375 -22.515625 C 23.476562 -17.671875 26.953125 -13.976562 31.359375 -11.4375 C 35.773438 -8.894531 40.765625 -7.625 46.328125 -7.625 C 51.703125 -7.625 56.617188 -8.914062 61.078125 -11.5 C 65.535156 -14.09375 69.054688 -17.785156 71.640625 -22.578125 C 74.234375 -27.378906 75.53125 -32.945312 75.53125 -39.28125 Z M 75.53125 -39.28125 "/></g></g></g><g fill="#000000" fill-opacity="1"><g transform="translate(588.885186, 151.605105)"><g><path d="M 6.90625 -39.28125 C 6.90625 -47.425781 8.535156 -54.546875 11.796875 -60.640625 C 15.054688 -66.734375 19.5625 -71.429688 25.3125 -74.734375 C 31.070312 -78.046875 37.644531 -79.703125 45.03125 -79.703125 C 54.71875 -79.703125 62.703125 -77.300781 68.984375 -72.5 C 75.265625 -67.707031 79.316406 -61.191406 81.140625 -52.953125 L 70.359375 -52.953125 C 69.015625 -58.609375 66.109375 -63.039062 61.640625 -66.25 C 57.179688 -69.46875 51.644531 -71.078125 45.03125 -71.078125 C 39.757812 -71.078125 35.007812 -69.875 30.78125 -67.46875 C 26.5625 -65.070312 23.226562 -61.5 20.78125 -56.75 C 18.34375 -52.007812 17.125 -46.1875 17.125 -39.28125 C 17.125 -32.375 18.34375 -26.519531 20.78125 -21.71875 C 23.226562 -16.925781 26.5625 -13.332031 30.78125 -10.9375 C 35.007812 -8.539062 39.757812 -7.34375 45.03125 -7.34375 C 51.644531 -7.34375 57.179688 -8.945312 61.640625 -12.15625 C 66.109375 -15.375 69.015625 -19.859375 70.359375 -25.609375 L 81.140625 -25.609375 C 79.316406 -17.554688 75.238281 -11.082031 68.90625 -6.1875 C 62.582031 -1.289062 54.625 1.15625 45.03125 1.15625 C 37.644531 1.15625 31.070312 -0.5 25.3125 -3.8125 C 19.5625 -7.125 15.054688 -11.820312 11.796875 -17.90625 C 8.535156 -24 6.90625 -31.125 6.90625 -39.28125 Z M 6.90625 -39.28125 "/></g></g></g><g fill="#000000" fill-opacity="1"><g transform="translate(671.616424, 151.605105)"><g><path d="M 76.25 -78.5625 L 29.640625 36.96875 L 19.140625 36.96875 L 34.390625 -0.4375 L 2.15625 -78.5625 L 13.234375 -78.5625 L 40 -11.515625 L 65.890625 -78.5625 Z M 76.25 -78.5625 "/></g></g></g><g fill="#000000" fill-opacity="1"><g transform="translate(744.563878, 151.605105)"><g/></g></g><g fill="#000000" fill-opacity="1"><g transform="translate(778.519605, 151.605105)"><g><path d="M 42.015625 1 C 35.390625 1 29.5625 -0.148438 24.53125 -2.453125 C 19.5 -4.753906 15.539062 -7.960938 12.65625 -12.078125 C 9.78125 -16.203125 8.25 -20.804688 8.0625 -25.890625 L 18.703125 -25.890625 C 19.179688 -21.003906 21.335938 -16.710938 25.171875 -13.015625 C 29.015625 -9.328125 34.628906 -7.484375 42.015625 -7.484375 C 48.828125 -7.484375 54.222656 -9.234375 58.203125 -12.734375 C 62.179688 -16.234375 64.171875 -20.671875 64.171875 -26.046875 C 64.171875 -30.359375 63.066406 -33.832031 60.859375 -36.46875 C 58.648438 -39.101562 55.914062 -41.066406 52.65625 -42.359375 C 49.394531 -43.660156 44.890625 -45.078125 39.140625 -46.609375 C 32.421875 -48.429688 27.09375 -50.207031 23.15625 -51.9375 C 19.226562 -53.664062 15.875 -56.351562 13.09375 -60 C 10.3125 -63.644531 8.921875 -68.582031 8.921875 -74.8125 C 8.921875 -79.988281 10.265625 -84.613281 12.953125 -88.6875 C 15.640625 -92.769531 19.425781 -95.960938 24.3125 -98.265625 C 29.207031 -100.566406 34.816406 -101.71875 41.140625 -101.71875 C 50.453125 -101.71875 57.957031 -99.4375 63.65625 -94.875 C 69.363281 -90.320312 72.648438 -84.453125 73.515625 -77.265625 L 62.578125 -77.265625 C 61.910156 -81.390625 59.65625 -85.054688 55.8125 -88.265625 C 51.976562 -91.484375 46.800781 -93.09375 40.28125 -93.09375 C 34.238281 -93.09375 29.203125 -91.484375 25.171875 -88.265625 C 21.148438 -85.054688 19.140625 -80.671875 19.140625 -75.109375 C 19.140625 -70.878906 20.238281 -67.46875 22.4375 -64.875 C 24.644531 -62.289062 27.40625 -60.328125 30.71875 -58.984375 C 34.03125 -57.640625 38.515625 -56.203125 44.171875 -54.671875 C 50.691406 -52.847656 55.960938 -51.046875 59.984375 -49.265625 C 64.015625 -47.492188 67.421875 -44.785156 70.203125 -41.140625 C 72.992188 -37.503906 74.390625 -32.613281 74.390625 -26.46875 C 74.390625 -21.769531 73.140625 -17.3125 70.640625 -13.09375 C 68.148438 -8.875 64.457031 -5.46875 59.5625 -2.875 C 54.675781 -0.289062 48.828125 1 42.015625 1 Z M 42.015625 1 "/></g></g></g><g fill="#000000" fill-opacity="1"><g transform="translate(855.351762, 151.605105)"><g><path d="M 79.5625 -78.5625 L 79.5625 0 L 69.484375 0 L 69.484375 -13.8125 C 67.179688 -8.914062 63.632812 -5.171875 58.84375 -2.578125 C 54.050781 0.00390625 48.679688 1.296875 42.734375 1.296875 C 33.328125 1.296875 25.648438 -1.601562 19.703125 -7.40625 C 13.765625 -13.207031 10.796875 -21.625 10.796875 -32.65625 L 10.796875 -78.5625 L 20.71875 -78.5625 L 20.71875 -33.8125 C 20.71875 -25.269531 22.847656 -18.742188 27.109375 -14.234375 C 31.378906 -9.734375 37.207031 -7.484375 44.59375 -7.484375 C 52.175781 -7.484375 58.21875 -9.878906 62.71875 -14.671875 C 67.226562 -19.472656 69.484375 -26.523438 69.484375 -35.828125 L 69.484375 -78.5625 Z M 79.5625 -78.5625 "/></g></g></g><g fill="#000000" fill-opacity="1"><g transform="translate(940.96073, 151.605105)"><g><path d="M 16.546875 -93.375 C 14.535156 -93.375 12.804688 -94.09375 11.359375 -95.53125 C 9.921875 -96.96875 9.203125 -98.742188 9.203125 -100.859375 C 9.203125 -102.960938 9.921875 -104.707031 11.359375 -106.09375 C 12.804688 -107.488281 14.535156 -108.1875 16.546875 -108.1875 C 18.554688 -108.1875 20.28125 -107.488281 21.71875 -106.09375 C 23.164062 -104.707031 23.890625 -102.960938 23.890625 -100.859375 C 23.890625 -98.742188 23.164062 -96.96875 21.71875 -95.53125 C 20.28125 -94.09375 18.554688 -93.375 16.546875 -93.375 Z M 21.578125 -78.5625 L 21.578125 0 L 11.515625 0 L 11.515625 -78.5625 Z M 21.578125 -78.5625 "/></g></g></g><g fill="#000000" fill-opacity="1"><g transform="translate(968.441809, 151.605105)"><g><path d="M 24.609375 -70.0625 L 24.609375 -21.296875 C 24.609375 -16.492188 25.515625 -13.179688 27.328125 -11.359375 C 29.148438 -9.535156 32.363281 -8.625 36.96875 -8.625 L 46.1875 -8.625 L 46.1875 0 L 35.390625 0 C 28.296875 0 23.019531 -1.648438 19.5625 -4.953125 C 16.113281 -8.265625 14.390625 -13.710938 14.390625 -21.296875 L 14.390625 -70.0625 L 3.453125 -70.0625 L 3.453125 -78.5625 L 14.390625 -78.5625 L 14.390625 -98.265625 L 24.609375 -98.265625 L 24.609375 -78.5625 L 46.1875 -78.5625 L 46.1875 -70.0625 Z M 24.609375 -70.0625 "/></g></g></g><g fill="#000000" fill-opacity="1"><g transform="translate(1014.195751, 151.605105)"><g><path d="M 82.578125 -43.3125 C 82.578125 -39.851562 82.484375 -37.210938 82.296875 -35.390625 L 17.125 -35.390625 C 17.40625 -29.441406 18.84375 -24.359375 21.4375 -20.140625 C 24.03125 -15.921875 27.4375 -12.734375 31.65625 -10.578125 C 35.875 -8.421875 40.476562 -7.34375 45.46875 -7.34375 C 51.988281 -7.34375 57.476562 -8.921875 61.9375 -12.078125 C 66.394531 -15.242188 69.34375 -19.515625 70.78125 -24.890625 L 81.4375 -24.890625 C 79.519531 -17.210938 75.414062 -10.953125 69.125 -6.109375 C 62.84375 -1.265625 54.957031 1.15625 45.46875 1.15625 C 38.082031 1.15625 31.460938 -0.5 25.609375 -3.8125 C 19.753906 -7.125 15.171875 -11.820312 11.859375 -17.90625 C 8.554688 -24 6.90625 -31.125 6.90625 -39.28125 C 6.90625 -47.425781 8.535156 -54.566406 11.796875 -60.703125 C 15.054688 -66.847656 19.613281 -71.550781 25.46875 -74.8125 C 31.320312 -78.070312 37.988281 -79.703125 45.46875 -79.703125 C 52.945312 -79.703125 59.488281 -78.070312 65.09375 -74.8125 C 70.707031 -71.550781 75.023438 -67.160156 78.046875 -61.640625 C 81.066406 -56.128906 82.578125 -50.019531 82.578125 -43.3125 Z M 72.375 -43.59375 C 72.46875 -49.445312 71.289062 -54.4375 68.84375 -58.5625 C 66.394531 -62.6875 63.0625 -65.800781 58.84375 -67.90625 C 54.625 -70.019531 50.019531 -71.078125 45.03125 -71.078125 C 37.550781 -71.078125 31.171875 -68.675781 25.890625 -63.875 C 20.617188 -59.082031 17.695312 -52.320312 17.125 -43.59375 Z M 72.375 -43.59375 "/></g></g></g></g></g><g transform="matrix(1, 0, 0, 1, 255, 160)"><g clip-path="url(#4ac6bb2dc0)"><g fill="#707070" fill-opacity="1"><g transform="translate(0.453125, 151.620724)"><g><path d="M 42.4375 -70.0625 L 24.171875 -70.0625 L 24.171875 0 L 14.09375 0 L 14.09375 -70.0625 L 3.171875 -70.0625 L 3.171875 -78.5625 L 14.09375 -78.5625 L 14.09375 -84.015625 C 14.09375 -92.554688 16.273438 -98.835938 20.640625 -102.859375 C 25.003906 -106.890625 32.082031 -108.90625 41.875 -108.90625 L 41.875 -100.28125 C 35.34375 -100.28125 30.757812 -99.03125 28.125 -96.53125 C 25.488281 -94.039062 24.171875 -89.867188 24.171875 -84.015625 L 24.171875 -78.5625 L 42.4375 -78.5625 Z M 42.4375 -70.0625 "/></g></g></g><g fill="#707070" fill-opacity="1"><g transform="translate(41.746784, 151.620724)"><g><path d="M 45.890625 1.15625 C 38.503906 1.15625 31.863281 -0.5 25.96875 -3.8125 C 20.070312 -7.125 15.421875 -11.820312 12.015625 -17.90625 C 8.609375 -24 6.90625 -31.125 6.90625 -39.28125 C 6.90625 -47.425781 8.628906 -54.546875 12.078125 -60.640625 C 15.535156 -66.734375 20.238281 -71.429688 26.1875 -74.734375 C 32.132812 -78.046875 38.800781 -79.703125 46.1875 -79.703125 C 53.570312 -79.703125 60.257812 -78.046875 66.25 -74.734375 C 72.25 -71.429688 76.953125 -66.734375 80.359375 -60.640625 C 83.765625 -54.546875 85.46875 -47.425781 85.46875 -39.28125 C 85.46875 -31.21875 83.738281 -24.117188 80.28125 -17.984375 C 76.832031 -11.847656 72.082031 -7.125 66.03125 -3.8125 C 59.988281 -0.5 53.273438 1.15625 45.890625 1.15625 Z M 45.890625 -7.625 C 51.078125 -7.625 55.875 -8.796875 60.28125 -11.140625 C 64.695312 -13.492188 68.269531 -17.046875 71 -21.796875 C 73.738281 -26.546875 75.109375 -32.375 75.109375 -39.28125 C 75.109375 -46.1875 73.765625 -52.007812 71.078125 -56.75 C 68.390625 -61.5 64.835938 -65.050781 60.421875 -67.40625 C 56.015625 -69.757812 51.222656 -70.9375 46.046875 -70.9375 C 40.859375 -70.9375 36.054688 -69.757812 31.640625 -67.40625 C 27.234375 -65.050781 23.710938 -61.5 21.078125 -56.75 C 18.441406 -52.007812 17.125 -46.1875 17.125 -39.28125 C 17.125 -32.375 18.441406 -26.546875 21.078125 -21.796875 C 23.710938 -17.046875 27.210938 -13.492188 31.578125 -11.140625 C 35.941406 -8.796875 40.710938 -7.625 45.890625 -7.625 Z M 45.890625 -7.625 "/></g></g></g><g fill="#707070" fill-opacity="1"><g transform="translate(128.650616, 151.620724)"><g><path d="M 21.578125 -64.59375 C 23.785156 -69.488281 27.164062 -73.28125 31.71875 -75.96875 C 36.28125 -78.65625 41.867188 -80 48.484375 -80 L 48.484375 -69.484375 L 45.75 -69.484375 C 38.457031 -69.484375 32.601562 -67.515625 28.1875 -63.578125 C 23.78125 -59.648438 21.578125 -53.082031 21.578125 -43.875 L 21.578125 0 L 11.515625 0 L 11.515625 -78.5625 L 21.578125 -78.5625 Z M 21.578125 -64.59375 "/></g></g></g><g fill="#707070" fill-opacity="1"><g transform="translate(175.267856, 151.620724)"><g/></g></g><g fill="#707070" fill-opacity="1"><g transform="translate(209.223597, 151.620724)"><g><path d="M 42.015625 1 C 35.390625 1 29.5625 -0.148438 24.53125 -2.453125 C 19.5 -4.753906 15.539062 -7.960938 12.65625 -12.078125 C 9.78125 -16.203125 8.25 -20.804688 8.0625 -25.890625 L 18.703125 -25.890625 C 19.179688 -21.003906 21.335938 -16.710938 25.171875 -13.015625 C 29.015625 -9.328125 34.628906 -7.484375 42.015625 -7.484375 C 48.828125 -7.484375 54.222656 -9.234375 58.203125 -12.734375 C 62.179688 -16.234375 64.171875 -20.671875 64.171875 -26.046875 C 64.171875 -30.359375 63.066406 -33.832031 60.859375 -36.46875 C 58.648438 -39.101562 55.914062 -41.066406 52.65625 -42.359375 C 49.394531 -43.660156 44.890625 -45.078125 39.140625 -46.609375 C 32.421875 -48.429688 27.09375 -50.207031 23.15625 -51.9375 C 19.226562 -53.664062 15.875 -56.351562 13.09375 -60 C 10.3125 -63.644531 8.921875 -68.582031 8.921875 -74.8125 C 8.921875 -79.988281 10.265625 -84.613281 12.953125 -88.6875 C 15.640625 -92.769531 19.425781 -95.960938 24.3125 -98.265625 C 29.207031 -100.566406 34.816406 -101.71875 41.140625 -101.71875 C 50.453125 -101.71875 57.957031 -99.4375 63.65625 -94.875 C 69.363281 -90.320312 72.648438 -84.453125 73.515625 -77.265625 L 62.578125 -77.265625 C 61.910156 -81.390625 59.65625 -85.054688 55.8125 -88.265625 C 51.976562 -91.484375 46.800781 -93.09375 40.28125 -93.09375 C 34.238281 -93.09375 29.203125 -91.484375 25.171875 -88.265625 C 21.148438 -85.054688 19.140625 -80.671875 19.140625 -75.109375 C 19.140625 -70.878906 20.238281 -67.46875 22.4375 -64.875 C 24.644531 -62.289062 27.40625 -60.328125 30.71875 -58.984375 C 34.03125 -57.640625 38.515625 -56.203125 44.171875 -54.671875 C 50.691406 -52.847656 55.960938 -51.046875 59.984375 -49.265625 C 64.015625 -47.492188 67.421875 -44.785156 70.203125 -41.140625 C 72.992188 -37.503906 74.390625 -32.613281 74.390625 -26.46875 C 74.390625 -21.769531 73.140625 -17.3125 70.640625 -13.09375 C 68.148438 -8.875 64.457031 -5.46875 59.5625 -2.875 C 54.675781 -0.289062 48.828125 1 42.015625 1 Z M 42.015625 1 "/></g></g></g><g fill="#707070" fill-opacity="1"><g transform="translate(286.055781, 151.620724)"><g><path d="M 24.609375 -70.0625 L 24.609375 -21.296875 C 24.609375 -16.492188 25.515625 -13.179688 27.328125 -11.359375 C 29.148438 -9.535156 32.363281 -8.625 36.96875 -8.625 L 46.1875 -8.625 L 46.1875 0 L 35.390625 0 C 28.296875 0 23.019531 -1.648438 19.5625 -4.953125 C 16.113281 -8.265625 14.390625 -13.710938 14.390625 -21.296875 L 14.390625 -70.0625 L 3.453125 -70.0625 L 3.453125 -78.5625 L 14.390625 -78.5625 L 14.390625 -98.265625 L 24.609375 -98.265625 L 24.609375 -78.5625 L 46.1875 -78.5625 L 46.1875 -70.0625 Z M 24.609375 -70.0625 "/></g></g></g><g fill="#707070" fill-opacity="1"><g transform="translate(331.809751, 151.620724)"><g><path d="M 82.578125 -43.3125 C 82.578125 -39.851562 82.484375 -37.210938 82.296875 -35.390625 L 17.125 -35.390625 C 17.40625 -29.441406 18.84375 -24.359375 21.4375 -20.140625 C 24.03125 -15.921875 27.4375 -12.734375 31.65625 -10.578125 C 35.875 -8.421875 40.476562 -7.34375 45.46875 -7.34375 C 51.988281 -7.34375 57.476562 -8.921875 61.9375 -12.078125 C 66.394531 -15.242188 69.34375 -19.515625 70.78125 -24.890625 L 81.4375 -24.890625 C 79.519531 -17.210938 75.414062 -10.953125 69.125 -6.109375 C 62.84375 -1.265625 54.957031 1.15625 45.46875 1.15625 C 38.082031 1.15625 31.460938 -0.5 25.609375 -3.8125 C 19.753906 -7.125 15.171875 -11.820312 11.859375 -17.90625 C 8.554688 -24 6.90625 -31.125 6.90625 -39.28125 C 6.90625 -47.425781 8.535156 -54.566406 11.796875 -60.703125 C 15.054688 -66.847656 19.613281 -71.550781 25.46875 -74.8125 C 31.320312 -78.070312 37.988281 -79.703125 45.46875 -79.703125 C 52.945312 -79.703125 59.488281 -78.070312 65.09375 -74.8125 C 70.707031 -71.550781 75.023438 -67.160156 78.046875 -61.640625 C 81.066406 -56.128906 82.578125 -50.019531 82.578125 -43.3125 Z M 72.375 -43.59375 C 72.46875 -49.445312 71.289062 -54.4375 68.84375 -58.5625 C 66.394531 -62.6875 63.0625 -65.800781 58.84375 -67.90625 C 54.625 -70.019531 50.019531 -71.078125 45.03125 -71.078125 C 37.550781 -71.078125 31.171875 -68.675781 25.890625 -63.875 C 20.617188 -59.082031 17.695312 -52.320312 17.125 -43.59375 Z M 72.375 -43.59375 "/></g></g></g><g fill="#707070" fill-opacity="1"><g transform="translate(415.835961, 151.620724)"><g><path d="M 21.578125 -106.46875 L 21.578125 0 L 11.515625 0 L 11.515625 -106.46875 Z M 21.578125 -106.46875 "/></g></g></g><g fill="#707070" fill-opacity="1"><g transform="translate(443.317067, 151.620724)"><g><path d="M 21.578125 -106.46875 L 21.578125 0 L 11.515625 0 L 11.515625 -106.46875 Z M 21.578125 -106.46875 "/></g></g></g><g fill="#707070" fill-opacity="1"><g transform="translate(470.798173, 151.620724)"><g><path d="M 6.90625 -39.421875 C 6.90625 -47.472656 8.507812 -54.546875 11.71875 -60.640625 C 14.9375 -66.734375 19.398438 -71.429688 25.109375 -74.734375 C 30.816406 -78.046875 37.265625 -79.703125 44.453125 -79.703125 C 51.929688 -79.703125 58.378906 -77.972656 63.796875 -74.515625 C 69.222656 -71.066406 73.132812 -66.660156 75.53125 -61.296875 L 75.53125 -78.5625 L 85.609375 -78.5625 L 85.609375 0 L 75.53125 0 L 75.53125 -17.40625 C 73.039062 -12.039062 69.082031 -7.601562 63.65625 -4.09375 C 58.238281 -0.59375 51.789062 1.15625 44.3125 1.15625 C 37.21875 1.15625 30.816406 -0.519531 25.109375 -3.875 C 19.398438 -7.238281 14.9375 -11.988281 11.71875 -18.125 C 8.507812 -24.269531 6.90625 -31.367188 6.90625 -39.421875 Z M 75.53125 -39.28125 C 75.53125 -45.613281 74.234375 -51.175781 71.640625 -55.96875 C 69.054688 -60.757812 65.535156 -64.453125 61.078125 -67.046875 C 56.617188 -69.640625 51.703125 -70.9375 46.328125 -70.9375 C 40.765625 -70.9375 35.773438 -69.6875 31.359375 -67.1875 C 26.953125 -64.695312 23.476562 -61.078125 20.9375 -56.328125 C 18.394531 -51.578125 17.125 -45.941406 17.125 -39.421875 C 17.125 -32.992188 18.394531 -27.359375 20.9375 -22.515625 C 23.476562 -17.671875 26.953125 -13.976562 31.359375 -11.4375 C 35.773438 -8.894531 40.765625 -7.625 46.328125 -7.625 C 51.703125 -7.625 56.617188 -8.914062 61.078125 -11.5 C 65.535156 -14.09375 69.054688 -17.785156 71.640625 -22.578125 C 74.234375 -27.378906 75.53125 -32.945312 75.53125 -39.28125 Z M 75.53125 -39.28125 "/></g></g></g><g fill="#707070" fill-opacity="1"><g transform="translate(562.450059, 151.620724)"><g><path d="M 21.578125 -64.59375 C 23.785156 -69.488281 27.164062 -73.28125 31.71875 -75.96875 C 36.28125 -78.65625 41.867188 -80 48.484375 -80 L 48.484375 -69.484375 L 45.75 -69.484375 C 38.457031 -69.484375 32.601562 -67.515625 28.1875 -63.578125 C 23.78125 -59.648438 21.578125 -53.082031 21.578125 -43.875 L 21.578125 0 L 11.515625 0 L 11.515625 -78.5625 L 21.578125 -78.5625 Z M 21.578125 -64.59375 "/></g></g></g></g></g></svg>